<svg xmlns="http://www.w3.org/2000/svg" viewBox="0 0 512 512"><defs><style>.cls-1{fill:#f55b4b;}.cls-2{fill:#4f4f74;}.cls-3{fill:#f6c752;}.cls-4{fill:#f7bb38;}.cls-5{fill:#00b564;}.cls-6{fill:#05914e;}.cls-7{fill:#a65c3b;}.cls-8{fill:#9e4830;}.cls-9{fill:#c17456;}.cls-10{fill:#bababa;}.cls-11{fill:#fff;}.cls-12{fill:#d7e2dd;}.cls-13{fill:#049b53;}</style></defs><title>English Food</title><g id="BULINE"><circle class="cls-1" cx="256" cy="256" r="256"/></g><g id="Icons"><path class="cls-2" d="M506.1,310.87C481,425.88,378.55,512,256,512S31,425.88,5.9,310.87Z"/><path class="cls-3" d="M332.1,178.67a38.07,38.07,0,0,0-20.6,6,38.27,38.27,0,0,0-47.79-19.81,51.41,51.41,0,0,0-101,7.8,48,48,0,1,0,14.67,78.59c15.09,7.71,35.12,12.41,57.08,12.41,28.93,0,54.46-8.15,69.84-20.59a38.21,38.21,0,1,0,27.78-64.44Z"/><path class="cls-4" d="M257.81,150.91a51.4,51.4,0,0,0-81.13,36.83,48,48,0,0,0-60.19,68.56,48,48,0,0,1,46.24-83.6,51.41,51.41,0,0,1,95.08-21.79Z"/><path class="cls-5" d="M223.54,231.68A14.1,14.1,0,0,0,208.71,208a14.1,14.1,0,0,0-27-7.48c-.13.32-.23.65-.33,1a13.86,13.86,0,0,0-5.51-3.91,14.1,14.1,0,0,0-17.14,5.72c0-.17,0-.34,0-.51a13.38,13.38,0,0,0,.12-1.8,14.1,14.1,0,0,0-24.17-9.87,14.1,14.1,0,0,0-27.89,2.91c0,.35,0,.69,0,1a14,14,0,0,0-6.56-1.63,14.1,14.1,0,0,0-13.86,11.59,14.1,14.1,0,0,0-26.54,9.36c-.18,0-.36,0-.55,0A14.09,14.09,0,0,0,47.34,236a14.09,14.09,0,1,0,15,23.19,30.43,30.43,0,0,0,46.94,4,30.38,30.38,0,0,0,20.92.78,30.44,30.44,0,0,0,28.6,1.85,30.47,30.47,0,0,0,35.66,4.68,14.08,14.08,0,0,0,22.94-14.18,14.09,14.09,0,0,0,6.13-24.64Z"/><circle class="cls-6" cx="205.41" cy="243.71" r="13.47"/><path class="cls-7" d="M326.23,226c0,5.71-5,11.9-3.81,17.24,1.25,5.51,8.5,8.91,10.9,13.88s.61,12.84,4.07,17.18,11.48,4.29,15.85,7.78,6,11.28,11.1,13.72,12.13-1.12,17.65.14c5.33,1.21,10.26,7.52,16,7.52s10.63-6.31,16-7.52c5.51-1.26,12.67,2.26,17.65-.14s6.76-10.25,11.1-13.72,12.36-3.42,15.84-7.78,1.64-12.12,4.08-17.18,9.64-8.37,10.89-13.88c1.22-5.34-3.81-11.53-3.81-17.24s5-11.9,3.81-17.24c-1.25-5.51-8.5-8.91-10.9-13.88s-.6-12.83-4.07-17.17-11.48-4.3-15.84-7.78-6.05-11.29-11.1-13.73-12.14,1.12-17.65-.13c-5.34-1.22-10.26-7.52-16-7.52s-10.63,6.3-16,7.52c-5.52,1.25-12.68-2.27-17.65.13s-6.76,10.26-11.1,13.73-12.36,3.41-15.85,7.78-1.63,12.11-4.07,17.17-9.65,8.37-10.9,13.88C321.21,214.07,326.23,220.27,326.23,226Z"/><path class="cls-8" d="M413.93,295.91c-5.35,1.21-10.27,7.52-16,7.52s-10.63-6.31-16-7.52c-5.51-1.25-12.67,2.26-17.65-.14s-6.76-10.25-11.1-13.72-12.36-3.42-15.84-7.78-1.64-12.12-4.08-17.17-9.65-8.38-10.9-13.89c-1.21-5.34,3.82-11.53,3.82-17.24s-5-11.89-3.82-17.24c1.25-5.51,8.5-8.9,10.9-13.88s.61-12.83,4.08-17.17,11.47-4.3,15.84-7.78,6-11.29,11.1-13.72,12.14,1.11,17.65-.15c5.34-1.2,10.26-7.51,16-7.51s10.62,6.31,16,7.51c-5.52,1.26-12.68-2.25-17.66.15s-6.76,10.25-11.1,13.72-12.35,3.41-15.84,7.78-1.63,12.12-4.08,17.17-9.64,8.37-10.89,13.88c-1.21,5.35,3.82,11.53,3.82,17.24s-5,11.9-3.82,17.24c1.25,5.51,8.5,8.92,10.9,13.89s.6,12.82,4.08,17.17,11.47,4.3,15.83,7.78,6.05,11.28,11.1,13.72S408.41,294.66,413.93,295.91Z"/><circle class="cls-9" cx="442.14" cy="215.35" r="12.95"/><circle class="cls-9" cx="428.8" cy="191.9" r="9.17"/><path class="cls-7" d="M222.88,206.19c0,5.7-5,11.9-3.81,17.23,1.25,5.52,8.5,8.92,10.9,13.89s.6,12.83,4.07,17.17,11.48,4.3,15.84,7.78S255.93,273.55,261,276s12.14-1.12,17.65.13c5.34,1.22,10.26,7.52,16,7.52s10.63-6.3,16-7.52c5.51-1.25,12.67,2.27,17.65-.13s6.75-10.26,11.1-13.73,12.35-3.41,15.84-7.78,1.63-12.12,4.07-17.17,9.65-8.37,10.9-13.89c1.21-5.33-3.81-11.53-3.81-17.23s5-11.9,3.81-17.24c-1.25-5.51-8.5-8.91-10.9-13.89s-.6-12.83-4.07-17.17-11.48-4.29-15.85-7.78-6-11.28-11.1-13.72-12.13,1.11-17.64-.14c-5.34-1.21-10.26-7.52-16-7.52s-10.63,6.31-16,7.52c-5.51,1.25-12.67-2.26-17.65.14s-6.75,10.25-11.1,13.72-12.36,3.42-15.84,7.78S232.41,170,230,175.06s-9.65,8.38-10.9,13.89C217.86,194.29,222.88,200.48,222.88,206.19Z"/><path class="cls-8" d="M310.57,276.13c-5.34,1.2-10.26,7.51-16,7.51s-10.62-6.31-16-7.51S266,278.38,261,276s-6.76-10.25-11.1-13.72-12.37-3.41-15.85-7.77-1.63-12.13-4.07-17.18-9.65-8.37-10.9-13.88c-1.22-5.35,3.81-11.53,3.81-17.24s-5-11.9-3.81-17.24c1.25-5.51,8.5-8.91,10.9-13.89s.6-12.82,4.07-17.16,11.48-4.31,15.85-7.79,6-11.28,11.1-13.72,12.14,1.12,17.64-.14,10.26-7.52,16-7.52,10.63,6.31,16,7.52c-5.51,1.26-12.68-2.26-17.65.14s-6.76,10.25-11.1,13.72-12.36,3.42-15.85,7.79-1.62,12.11-4.07,17.16S252.26,183.44,251,189c-1.22,5.34,3.81,11.53,3.81,17.24s-5,11.89-3.81,17.24c1.25,5.51,8.5,8.91,10.9,13.88s.6,12.83,4.07,17.18,11.48,4.29,15.84,7.77,6.05,11.29,11.1,13.72S305.06,274.87,310.57,276.13Z"/><circle class="cls-9" cx="338.79" cy="195.56" r="12.95"/><circle class="cls-9" cx="325.44" cy="172.12" r="9.17"/><path class="cls-10" d="M67.64,309.87H447.52a0,0,0,0,1,0,0v2.92A11.42,11.42,0,0,1,436.1,324.2h-357a11.42,11.42,0,0,1-11.42-11.42v-2.92a0,0,0,0,1,0,0Z"/><path class="cls-11" d="M443.4,310.87H67.64A39.47,39.47,0,0,1,30.8,285.55L24.37,268.8a7.4,7.4,0,0,1,6.91-10H479.77a7.39,7.39,0,0,1,6.9,10l-6.43,16.75A39.47,39.47,0,0,1,443.4,310.87Z"/><path class="cls-12" d="M477.05,292a39.46,39.46,0,0,1-33.65,18.86H67.64A39.47,39.47,0,0,1,30.8,285.55L24.37,268.8a7.4,7.4,0,0,1,6.91-10h5.16l5.7,14.84A39.45,39.45,0,0,0,79,298.93H454.73A39.38,39.38,0,0,0,477.05,292Z"/><circle class="cls-13" cx="84.64" cy="218.61" r="8.5"/><circle class="cls-13" cx="93.14" cy="240.42" r="8.5"/><circle class="cls-13" cx="141.25" cy="216.64" r="8.5"/><circle class="cls-13" cx="158.25" cy="237.92" r="8.5"/><circle class="cls-13" cx="125.02" cy="240.42" r="8.5"/><circle class="cls-13" cx="114.41" cy="204.12" r="8.5"/></g></svg>