<?xml version="1.0" standalone="no"?>
<!DOCTYPE svg PUBLIC "-//W3C//DTD SVG 20010904//EN"
 "http://www.w3.org/TR/2001/REC-SVG-20010904/DTD/svg10.dtd">
<svg version="1.0" xmlns="http://www.w3.org/2000/svg"
 width="512.000000pt" height="512.000000pt" viewBox="0 0 512.000000 512.000000"
 preserveAspectRatio="xMidYMid meet">

<g transform="translate(0.000000,512.000000) scale(0.100000,-0.100000)"
fill="#000000" stroke="none">
<path d="M750 4841 c-220 -60 -399 -236 -462 -456 l-23 -80 0 -1515 c0 -1622
-2 -1567 50 -1683 139 -316 653 -754 981 -837 79 -20 101 -20 1550 -18 1376 3
1473 4 1529 21 229 68 394 233 462 462 17 56 18 153 21 1532 3 1651 7 1541
-72 1709 -172 363 -555 755 -836 856 l-65 23 -1535 2 c-1440 2 -1539 1 -1600
-16z m3774 -631 c88 -118 155 -231 198 -335 l33 -80 3 -1462 c3 -1613 5 -1541
-60 -1673 -42 -85 -150 -194 -238 -238 -129 -64 -59 -62 -1645 -62 -1250 0
-1448 2 -1498 15 -143 37 -405 201 -575 360 l-57 53 55 -16 c50 -15 191 -17
1565 -17 1418 0 1514 1 1575 18 240 66 405 230 477 472 17 56 18 155 21 1495
3 1347 0 1548 -24 1650 -4 20 4 15 47 -30 29 -30 84 -98 123 -150z m-1929
-305 c110 -23 224 -85 303 -164 98 -98 153 -209 187 -378 l7 -33 -206 0 -205
0 -11 38 c-19 60 -62 115 -110 140 -43 22 -53 23 -245 20 -199 -3 -200 -3
-248 -31 -52 -31 -100 -95 -117 -157 -6 -21 -10 -239 -10 -536 0 -556 0 -555
66 -632 19 -22 54 -50 78 -62 42 -20 57 -21 264 -18 l219 3 41 29 c29 20 51
48 72 90 l30 61 -2 185 -3 185 -188 3 -187 2 2 173 3 172 373 3 372 2 0 -655
0 -655 -185 0 -185 0 0 36 c0 30 -3 35 -17 29 -136 -55 -239 -69 -452 -62
-143 4 -177 8 -248 31 -162 52 -309 179 -384 331 -66 135 -69 158 -69 710 0
281 4 526 10 573 36 286 236 506 515 567 86 19 439 19 530 0z"/>
</g>
</svg>
